{
	"asset":{
		"generator":"Khronos glTF Blender I/O v4.3.47",
		"version":"2.0"
	},
	"scene":0,
	"scenes":[
		{
			"name":"Scene",
			"nodes":[
				0
			]
		}
	],
	"nodes":[
		{
			"mesh":0,
			"name":"Earth"
		}
	],
	"meshes":[
		{
			"name":"Earth",
			"primitives":[
				{
					"attributes":{
						"POSITION":0,
						"NORMAL":1
					},
					"indices":2
				}
			]
		}
	],
	"accessors":[
		{
			"bufferView":0,
			"componentType":5126,
			"count":12062154,
			"max":[
				5.151069164276123,
				5.237530708312988,
				5.197756767272949
			],
			"min":[
				-5.049593925476074,
				-5.258837699890137,
				-5.162345886230469
			],
			"type":"VEC3"
		},
		{
			"bufferView":1,
			"componentType":5126,
			"count":12062154,
			"type":"VEC3"
		},
		{
			"bufferView":2,
			"componentType":5125,
			"count":12189696,
			"type":"SCALAR"
		}
	],
	"bufferViews":[
		{
			"buffer":0,
			"byteLength":144745848,
			"byteOffset":0,
			"target":34962
		},
		{
			"buffer":0,
			"byteLength":144745848,
			"byteOffset":144745848,
			"target":34962
		},
		{
			"buffer":0,
			"byteLength":48758784,
			"byteOffset":289491696,
			"target":34963
		}
	],
	"buffers":[
		{
			"byteLength":338250480,
			"uri":"Earth.bin"
		}
	]
}
